<?xml version="1.0" standalone="no"?>
<!DOCTYPE svg PUBLIC "-//W3C//DTD SVG 20010904//EN"
 "http://www.w3.org/TR/2001/REC-SVG-20010904/DTD/svg10.dtd">
<svg version="1.0" xmlns="http://www.w3.org/2000/svg"
 width="512.000000pt" height="512.000000pt" viewBox="0 0 512.000000 512.000000"
 preserveAspectRatio="xMidYMid meet">
<metadata>
Created by potrace 1.14, written by Peter Selinger 2001-2017
</metadata>
<g transform="translate(0.000000,512.000000) scale(0.100000,-0.100000)"
fill="#000000" stroke="none">
<path d="M0 2560 l0 -2560 2560 0 2560 0 0 2560 0 2560 -2560 0 -2560 0 0
-2560z m3128 1375 c126 -26 232 -82 322 -173 83 -83 124 -155 156 -272 25 -91
25 -310 1 -400 -32 -120 -81 -206 -160 -284 -131 -130 -268 -181 -482 -180
-113 1 -141 4 -212 28 -209 68 -363 238 -408 451 -21 102 -19 275 4 367 37
143 108 261 209 343 138 115 362 161 570 120z m-1008 -655 l0 -660 -190 0
-190 0 0 429 0 429 -47 9 -48 8 40 28 c29 20 52 27 87 27 l48 0 0 -430 0 -430
105 0 105 0 0 595 0 595 -86 0 -86 0 -143 -97 c-143 -97 -144 -98 -145 -136
l0 -39 113 78 c61 43 130 90 151 106 30 21 50 28 88 28 l48 0 -2 -542 -3 -543
-40 0 -40 0 -5 498 -5 497 -188 -130 c-104 -71 -190 -130 -193 -130 -2 0 -4
55 -4 123 l0 123 162 112 162 112 153 0 153 0 0 -660z m778 -1412 l2 -628 100
0 100 0 0 230 0 230 168 0 c274 0 390 47 459 188 26 53 28 66 28 177 0 111 -2
124 -27 170 -38 72 -98 123 -188 160 -38 16 -82 20 -273 24 l-227 6 0 -238 0
-239 168 7 c111 5 177 12 198 22 51 23 69 86 39 142 -19 38 -30 41 -151 41
l-104 0 0 -75 0 -75 -40 0 -40 0 0 110 0 110 148 0 c123 0 154 -4 189 -20 59
-26 83 -69 83 -146 0 -76 -26 -119 -90 -151 -42 -22 -56 -23 -262 -23 l-218 0
0 306 0 307 251 -7 c165 -5 269 -12 306 -22 171 -45 282 -158 312 -318 45
-244 -64 -438 -284 -506 -22 -7 -112 -15 -200 -19 l-160 -6 -3 -227 -2 -228
-185 0 -185 0 0 666 0 665 43 -3 42 -3 3 -627z m-1382 430 c77 -106 182 -253
233 -325 l93 -133 -23 -32 c-13 -18 -108 -151 -211 -296 -103 -144 -188 -265
-188 -267 0 -3 15 -5 33 -5 31 0 47 21 483 623 l450 622 132 3 132 3 -77 -107
c-299 -410 -444 -613 -459 -639 l-16 -31 146 -202 c81 -112 150 -210 153 -218
5 -13 -2 -15 -38 -12 l-43 3 -118 165 c-65 91 -135 189 -155 217 l-36 53 45
67 c25 38 136 194 247 348 l201 280 -31 3 c-18 2 -37 -2 -43 -8 -6 -6 -209
-284 -451 -618 l-440 -607 -108 -9 c-63 -5 -115 -5 -126 0 -17 8 7 45 214 334
129 179 232 330 231 336 -2 5 -106 151 -230 322 -124 172 -226 314 -226 317 0
3 20 5 43 5 l44 0 139 -192z m285 65 c128 -176 127 -174 106 -207 -10 -14 -21
-26 -25 -25 -4 0 -54 65 -111 145 -104 143 -105 144 -143 144 l-39 0 22 -32
c21 -30 256 -346 266 -358 6 -6 18 10 190 252 l148 207 48 0 c36 1 46 -2 41
-11 -10 -17 -404 -561 -414 -571 -4 -5 -48 44 -97 110 -128 169 -343 463 -343
468 0 3 58 5 129 5 l130 0 92 -127z m1731 -36 c113 -56 164 -153 156 -297 -6
-95 -33 -149 -101 -201 -75 -56 -100 -61 -334 -66 l-213 -5 0 -234 0 -234 -40
0 -40 0 0 263 0 264 223 6 c259 8 311 19 368 76 42 41 59 92 59 171 0 68 -25
125 -73 167 -52 45 -91 53 -269 53 l-158 0 0 36 0 36 183 -4 c176 -3 184 -4
239 -31z m-1091 -852 c179 -246 208 -290 192 -296 -10 -4 -104 -8 -208 -8
l-191 -1 -61 83 c-33 45 -94 128 -136 185 l-75 103 -133 -182 c-73 -99 -138
-183 -145 -186 -6 -2 -28 -3 -48 -1 l-35 3 177 243 177 242 33 -37 c18 -20 90
-114 160 -209 l127 -173 118 -1 c64 0 117 3 117 6 0 5 -217 306 -317 440 l-23
31 21 27 c12 15 25 26 30 24 5 -2 104 -133 220 -293z"/>
<path d="M2836 3868 c-149 -28 -296 -142 -361 -280 -50 -106 -65 -176 -65
-301 0 -126 16 -200 65 -296 65 -131 167 -217 312 -268 67 -23 94 -27 188 -27
185 0 307 47 415 159 263 275 191 806 -131 962 -116 56 -289 77 -423 51z m272
-64 c98 -20 162 -54 235 -126 97 -96 141 -221 141 -398 0 -227 -92 -389 -266
-474 -201 -98 -448 -63 -599 84 -101 99 -144 215 -144 395 0 61 6 135 14 165
67 270 322 415 619 354z"/>
<path d="M2857 3739 c-202 -47 -321 -244 -304 -499 19 -272 191 -433 446 -417
116 7 186 34 259 102 102 95 142 198 142 371 0 237 -113 398 -310 443 -54 13
-180 12 -233 0z m266 -69 c29 -11 72 -36 93 -54 165 -141 165 -521 0 -662 -62
-53 -135 -76 -242 -78 -83 -1 -96 2 -157 32 -79 39 -137 101 -169 181 -20 49
-23 73 -23 201 0 136 2 149 26 201 45 95 119 162 209 190 14 4 66 8 117 8 70
1 105 -4 146 -19z"/>
<path d="M2923 3620 c-103 -15 -177 -81 -209 -187 -20 -64 -20 -228 0 -296 18
-63 73 -130 129 -159 52 -26 149 -34 216 -18 77 18 124 58 163 137 32 65 33
72 33 183 0 139 -19 203 -77 266 -59 64 -147 89 -255 74z"/>
</g>
</svg>
